# xmcd
#
# Track frame offsets:
#	150
#	6090
#	19559
#	27199
#	40488
#	48401
#	59491
#	73696
#	84811
#	96588
#	107626
#	117904
#	133319
#	145167
#
# Disc length: 2098 seconds
#
# Revision: 0
# Processed by: cddbd v1.5.1PL0 Copyright (c) Steve Scherf et al.
# Submitted via: dBpowerAMP V4.0
#
DISCID=bf08300e
DTITLE=Jim Reeves and Don Williams - Jim Reeves and Don Williams
DYEAR=2003
DGENRE=Country
TTITLE0=Have I Told You Lately That I Love You (Jim Reeves)
TTITLE1=Where Do We Go From Here (Don Williams)
TTITLE2=Oklahoma Hills (Jim Reeves)
TTITLE3=Ruby Tuesday  (Don Williams)
TTITLE4=Till The End Of The World (Jim Reeves)
TTITLE5=Storybook Shildren  (Don Williams)
TTITLE6=The Highway To Nowhere (Jim Reeves)
TTITLE7=There's Always Something There To Remind Me (Don Williams)
TTITLE8=Your Old Love Letters (Jim Reeves)
TTITLE9=Spend Some Time With Me  (Don Williams)
TTITLE10=Just Call Me Lonesome (Jim Reeves)
TTITLE11=Tears ( (Don Williams)
TTITLE12=Your Old Love Letters (Jim Reeves)
TTITLE13=There's Never Been A Time (Don Williams)
EXTD=
EXTT0=
EXTT1=
EXTT2=
EXTT3=
EXTT4=
EXTT5=
EXTT6=
EXTT7=
EXTT8=
EXTT9=
EXTT10=
EXTT11=
EXTT12=
EXTT13=
PLAYORDER=
